<svg xmlns="http://www.w3.org/2000/svg" viewBox="0 0 512 512" fill="#25D366">
    <path
        d="M256 0C114.6 0 0 114.6 0 256c0 45.1 11.7 87.5 32.3 124.5L0 512l134.6-35.3C171.5 497.2 211.9 512 256 512c141.4 0 256-114.6 256-256S397.4 0 256 0zm149.5 361.5c-5.8 16.4-28.8 30.1-47.1 34-12.5 2.5-28.8 4.5-83.5-17.9-70.4-28.8-115.9-99.8-119.5-104.4-3.5-4.6-28.8-38.3-28.8-73.1s18.3-51.9 24.7-59c6.4-7.1 14-8.9 18.7-8.9s9.4.1 13.5.2c4.3.2 10.1-.8 15.8 12.1 5.8 13.1 19.8 48.3 21.5 51.8 1.7 3.5 2.9 7.6.6 12.2-2.3 4.6-3.5 7.5-7 11.6-3.5 4.1-7.4 9.2-10.6 12.4-3.5 3.5-7.1 7.3-3.1 14.3 4.1 7.1 18.2 30 39 48.6 26.8 24 49.4 31.4 56.4 35 7.1 3.5 11.2 2.9 15.3-1.7 4.1-4.6 17.5-20.4 22.2-27.4 4.6-7.1 9.2-5.8 15.5-3.5 6.4 2.3 40.4 19 47.4 22.5 7.1 3.5 11.8 5.2 13.5 8.1 1.7 2.9 1.7 16.4-4.1 32.8z" />
</svg>